<svg style="position: absolute; width: 0; height: 0; overflow: hidden;" aria-hidden="true" version="1.1" xmlns="http://www.w3.org/2000/svg" xmlns:xlink="http://www.w3.org/1999/xlink">
    <defs>
        <symbol id="instagram" viewBox="0 0 16 16" fill="currentColor">
            <path d="M15.9562 4.704c-0.0375-0.8501-0.1749-1.4346-0.3719-1.941-0.2031-0.5376-0.5157-1.0189-0.9252-1.419-0.4001-0.4063-0.8846-0.7221-1.4159-0.922-0.5094-0.197-1.0908-0.3345-1.941-0.3719C10.4458 94e-4 10.1739 0 8.0016 0 5.8293 0 5.5573 94e-4 4.704 0.0469 3.8539 0.0844 3.2694 0.222 2.7631 0.4188 2.2254 0.6219 1.7441 0.9345 1.344 1.344 0.9377 1.7441 0.6221 2.2286 0.422 2.7599 0.225 3.2694 0.0875 3.8507 0.0501 4.7009 94e-4 5.5574 0 5.8293 0 8.0016c0 2.1723 94e-4 2.4442 0.0469 3.2975 0.0375 0.8501 0.1751 1.4346 0.372 1.941 0.2032 0.5376 0.5188 1.0189 0.9251 1.419 0.4001 0.4063 0.8846 0.7221 1.4159 0.9221 0.5095 0.1969 1.0908 0.3344 1.9411 0.3719C5.5542 15.9907 5.8262 16 7.9985 16s2.4442-93e-4 3.2975-0.0469c0.8502-0.0375 1.4346-0.175 1.9409-0.3719 1.0753-0.4158 1.9255-1.2659 2.3412-2.3411 0.1968-0.5095 0.3344-1.0909 0.3719-1.941 0.0375-0.8533 0.0469-1.1252 0.0469-3.2975 0-2.1723-32e-4-2.4442-0.0407-3.2976zM14.5154 11.2366c-0.0344 0.7814-0.1657 1.2033-0.2751 1.4846-0.2688 0.6971-0.822 1.2503-1.5191 1.5191-0.2813 0.1094-0.7063 0.2407-1.4846 0.275-0.844 0.0376-1.0971 0.0469-3.2319 0.0469-2.1348 0-2.3911-93e-4-3.2319-0.0469-0.7814-0.0343-1.2034-0.1656-1.4847-0.275-0.3468-0.1282-0.6626-0.3313-0.9189-0.597-0.2656-0.2595-0.4688-0.572-0.597-0.9189-0.1094-0.2813-0.2407-0.7064-0.275-1.4847-0.0376-0.8439-0.0468-1.0971-0.0468-3.2319 0-2.1348 92e-4-2.3911 0.0468-3.2318 0.0343-0.7814 0.1656-1.2034 0.275-1.4847 0.1282-0.347 0.3314-0.6626 0.6002-0.919 0.2593-0.2657 0.5719-0.4688 0.9189-0.5969C3.5726 1.666 3.9977 1.5347 4.776 1.5003 5.6199 1.4628 5.8731 1.4534 8.0078 1.4534c2.138 0 2.3911 94e-4 3.2319 0.0469 0.7814 0.0344 1.2034 0.1657 1.4847 0.2751 0.3469 0.1281 0.6626 0.3312 0.9189 0.5969 0.2657 0.2594 0.4688 0.572 0.597 0.919 0.1094 0.2813 0.2407 0.7063 0.2751 1.4847 0.0375 0.8439 0.0469 1.097 0.0469 3.2318 0 2.1348-94e-4 2.3849-0.0469 3.2288z" />
            <path d="M8.0016 3.8914c-2.2691 0-4.1102 1.8409-4.1102 4.1101 0 2.2693 1.8411 4.1102 4.1102 4.1102 2.2692 0 4.1101-1.8409 4.1101-4.1102 0-2.2692-1.8409-4.1101-4.1101-4.1101zM8.0016 10.6677c-1.4721 0-2.6662-1.194-2.6662-2.6662s1.1941-2.6661 2.6662-2.6661c1.4722 0 2.6661 1.1939 2.6661 2.6661s-1.1939 2.6662-2.6661 2.6662z" />
            <path d="M13.2339 3.7289c0 0.5299-0.4296 0.9595-0.9596 0.9595-0.5299 0-0.9596-0.4296-0.9596-0.9595 0-0.53 0.4297-0.9596 0.9596-0.9596 0.53 0 0.9596 0.4296 0.9596 0.9596z" />
        </symbol>
        <symbol id="linkedin" viewBox="0 0 16 16" fill="currentColor">
            <path d="M15.996 16l4e-3-6e-4v-5.868c0-2.8707-0.618-5.082-3.974-5.082-1.6133 0-2.696 0.8853-3.138 1.7246l-0.0467 0 0-1.4566-3.182 0 0 10.682h3.3134l0-5.2894c0-1.3926 0.264-2.7393 1.9886-2.7393 1.6994 0 1.7247 1.5893 1.7247 2.8287V16z" />
            <path d="M0.264 5.318l3.3173 0 0 10.682H0.264z" />
            <path d="M1.9213 0C0.8607 0 0 0.8607 0 1.9213s0.8607 1.9394 1.9213 1.9394 1.9214-0.8787 1.9214-1.9394C3.842 0.8607 2.9813 0 1.9213 0z" />
        </symbol>
        <symbol id="facebook" viewBox="0 0 8 16" fill="none">
            <path fill="currentColor" d="M6.54 2.6567l1.4607 0 0-2.544C7.7487 0.078 6.882 0 5.8727 0 3.7667 0 2.324 1.3247 2.324 3.7593V6H0v2.844h2.324V16h2.8493l0-7.1553 2.23 0 0.354-2.844-2.5846 0 0-1.9594c6e-4-0.822 0.222-1.3846 1.3673-1.3846z" />
        </symbol>
        <symbol id="x" viewBox="0 0 16 15" fill="none">
            <path fill="currentColor" d="M12.6 0h2.454l-5.36 6.142L16 14.5h-4.937L7.196 9.43 2.771 14.5H0.316l5.733-6.57L0 0h5.063l3.495 4.633zM11.74 13.028h1.36L4.323 1.395H2.865z" />
        </symbol>
    </defs>
</svg>